<svg id="Group_156" data-name="Group 156" xmlns="http://www.w3.org/2000/svg" width="273.619" height="85.802" viewBox="0 0 273.619 85.802">
  <path id="Path_11" data-name="Path 11" d="M606.778,154.919c.605,37.536-6.719,51.333-6.719,51.333-6.972,13.307-16.605,12.549-16.605,12.549-7.477,0-14.449-12.8-14.449-12.8-9.634-16.985-15.085-21.42-15.085-21.42-2.9-2.256-5.78-2.528-9.255-1.739a10.127,10.127,0,0,0-4.076,1.934c-8.148,6.577-17.264,17.084-29.775,33.069-2.26,3.823-4.654,7.3-5.692,11.2a3.86,3.86,0,0,0,.333,2.118c.808,1.873.207,3.758-1.421,4.225-1.842.532-3.336-1.869-2.946-4.976a30.249,30.249,0,0,1,1.027-4.348c3.754-13.235,12.051-22.221,18.969-33,5.045-7.856,16.847-20.566,23.815-24.6,5.332-3.087,10.262-2.708,15.089.7,5.47,3.857,9.94,9.461,14.25,15.357,0,0,9.9,14.108,14.487,14.215,0,0,7.14.854,10.231-11.3,0,0,3.409-16.736,3.091-31.66,0,0-.318-4.585,1.919-4.8C603.982,150.985,606.694,149.79,606.778,154.919Z" transform="translate(-333.195 -149.664)" fill="#22c55e"/>
  <path id="Path_12" data-name="Path 12" d="M397.539,189.59c-1.111,16.8-81.8,43.833-96.392,33.219-9.4-6.834,5.374-35.666,19.976-42.316,8.684-3.953-24.673,30.794-10.637,36.827,15.882,6.834,71.371-19.957,67.763-28.61-.272-10.906-67.046-20.547-79.94-25.27-2.643-.969-.486-4.179,1.1-4.018C325.353,162.048,398.781,170.836,397.539,189.59Z" transform="translate(-207.363 -154.938)" fill="#22c55e"/>
  <path id="Path_13" data-name="Path 13" d="M146.418,210.727c-31.8,5.328-80.043,10.975-83.387-3.589-3.7-16.115,65.721-64.717,82.671-58.933,10.917,3.723,4.98,35.073-7.087,45.519-7.175,6.209,14.84-36.038-.28-37.674-17.111-1.858-62.526,39.275-56.627,46.369,2.49,7.565,39.9,3.9,64.545,1.827,0,0,4.98-.464,4.98,2.727C151.233,209.823,146.418,210.727,146.418,210.727Z" transform="translate(-62.888 -147.729)" fill="#22c55e"/>
</svg>
